# xmcd CD database file
#
# Track frame offsets:
#	150
#	14410
#	25929
#	39274
#	57132
#	71795
#	81202
#	94618
#	114946
#	126220
#	135375
#	147233
#	159547
#	168800
#	178993
#	190695
#
# Disc length: 2700 seconds
#
# Revision: 0
# Processed by: cddbd v1.5.1PL0 Copyright (c) Steve Scherf et al.
# Submitted via: CDex 1.51
#
DISCID=ce0a8a10
DTITLE=Various Artist - The best of country and western CD1
DYEAR=1900
DGENRE=Country
TTITLE0=Glen Cambell - Rhinestone cowboy
TTITLE1=Frankie Laine - Mule train
TTITLE2=Jimmy Dean - Big bad John
TTITLE3=Brook Benton - A rainy night in Georgia
TTITLE4=Kingston Trio - Tom Dooley
TTITLE5=Ned Miller - From a jack to a king
TTITLE6=Lee Marvin - Wandrin'  star
TTITLE7=Kenny Rogers - Coward of the county
TTITLE8=Henson Cargill - Skip a rope
TTITLE9=Roger Miller - Chug-A-Lug
TTITLE10=Dean Martin - Houston
TTITLE11=Jack and Misty - Tennesee bird walk
TTITLE12=Bob Luman - Let's  think about living
TTITLE13=Bobby Darin - 18 yellow roses
TTITLE14=Donna Fargo - Funny face
TTITLE15=Skeeter Davis - End of the world
EXTD=
EXTT0=
EXTT1=
EXTT2=
EXTT3=
EXTT4=
EXTT5=
EXTT6=
EXTT7=
EXTT8=
EXTT9=
EXTT10=
EXTT11=
EXTT12=
EXTT13=
EXTT14=
EXTT15=
PLAYORDER=
